HIERARCHY
ROOT Hips
{
	OFFSET	0.00	0.00	0.00
	CHANNELS 6 Xposition Yposition Zposition Zrotation Xrotation Yrotation
	JOINT LeftUpLeg
	{
		OFFSET	 0.126116	-0.014019	-0.065224
		CHANNELS 3 Zrotation Xrotation Yrotation
		JOINT LeftLeg
		{
			OFFSET	 0.000000	 0.000000	 0.569914
			CHANNELS 3 Zrotation Xrotation Yrotation
			JOINT LeftFoot
			{
				OFFSET	 0.000000	 0.000000	 0.544423
				CHANNELS 3 Zrotation Xrotation Yrotation
				JOINT LeftToeBase
				{
					OFFSET	 0.000000	 0.000000	 0.207117
					CHANNELS 3 Zrotation Xrotation Yrotation
					End Site
					{
						OFFSET	 0.000000	 0.000000	 0.207117
					}
				}
			}
		}
	}
	JOINT RightUpLeg
	{
		OFFSET	-0.124023	-0.008373	-0.065224
		CHANNELS 3 Zrotation Xrotation Yrotation
		JOINT RightLeg
		{
			OFFSET	 0.000000	 0.000000	 0.570047
			CHANNELS 3 Zrotation Xrotation Yrotation
			JOINT RightFoot
			{
				OFFSET	 0.000000	 0.000000	 0.544354
				CHANNELS 3 Zrotation Xrotation Yrotation
				JOINT RightToeBase
				{
					OFFSET	 0.000000	 0.000000	 0.207540
					CHANNELS 3 Zrotation Xrotation Yrotation
					End Site
					{
						OFFSET	 0.000000	 0.000000	 0.207540
					}
				}
			}
		}
	}
	JOINT Spine
	{
		OFFSET	 0.000184	-0.007763	 0.117403
		CHANNELS 3 Zrotation Xrotation Yrotation
		JOINT Spine1
		{
			OFFSET	 0.000000	 0.000000	 0.137269
			CHANNELS 3 Zrotation Xrotation Yrotation
			JOINT Spine2
			{
				OFFSET	 0.000000	 0.000000	 0.156879
				CHANNELS 3 Zrotation Xrotation Yrotation
				JOINT LeftShoulder
				{
					OFFSET	 0.080501	-0.002496	 0.160144
					CHANNELS 3 Zrotation Xrotation Yrotation
					JOINT LeftArm
					{
						OFFSET	 0.000000	 0.000000	 0.164363
						CHANNELS 3 Zrotation Xrotation Yrotation
						JOINT LeftForeArm
						{
							OFFSET	 0.000000	 0.000000	 0.364576
							CHANNELS 3 Zrotation Xrotation Yrotation
							JOINT LeftHand
							{
								OFFSET	 0.000000	 0.000000	 0.360812
								CHANNELS 3 Zrotation Xrotation Yrotation
								JOINT LeftHandIndex1
								{
									OFFSET	 0.000000	 0.000000	 0.086006
									CHANNELS 3 Zrotation Xrotation Yrotation
									JOINT LeftHandIndex2
									{
										OFFSET	 0.000000	 0.000000	 0.047236
										CHANNELS 3 Zrotation Xrotation Yrotation
										JOINT LeftHandIndex3
										{
											OFFSET	-0.004284	-0.000551	 0.038166
											CHANNELS 3 Zrotation Xrotation Yrotation
											End Site
											{
												OFFSET	-0.004284	-0.000551	 0.038166
											}
										}
									}
								}
							}
						}
					}
				}
				JOINT Neck
				{
					OFFSET	 0.000000	 0.000000	 0.176489
					CHANNELS 3 Zrotation Xrotation Yrotation
					JOINT Head
					{
						OFFSET	 0.000000	-0.001747	 0.077940
						CHANNELS 3 Zrotation Xrotation Yrotation
						End Site
						{
							OFFSET	 0.000000	-0.001747	 0.077940
						}
					}
				}
				JOINT RightShoulder
				{
					OFFSET	-0.080363	 0.000306	 0.159706
					CHANNELS 3 Zrotation Xrotation Yrotation
					JOINT RightArm
					{
						OFFSET	 0.000000	 0.000000	 0.164196
						CHANNELS 3 Zrotation Xrotation Yrotation
						JOINT RightForeArm
						{
							OFFSET	 0.000000	 0.000000	 0.365611
							CHANNELS 3 Zrotation Xrotation Yrotation
							JOINT RightHand
							{
								OFFSET	 0.000000	 0.000000	 0.360648
								CHANNELS 3 Zrotation Xrotation Yrotation
								JOINT RightHandIndex1
								{
									OFFSET	 0.000000	 0.000000	 0.069977
									CHANNELS 3 Zrotation Xrotation Yrotation
									JOINT RightHandIndex2
									{
										OFFSET	 0.000000	 0.000000	 0.052305
										CHANNELS 3 Zrotation Xrotation Yrotation
										JOINT RightHandIndex3
										{
											OFFSET	 0.009002	-0.000782	 0.042196
											CHANNELS 3 Zrotation Xrotation Yrotation
											End Site
											{
												OFFSET	 0.009002	-0.000782	 0.042196
											}
										}
									}
								}
							}
						}
					}
				}
			}
		}
	}
}
MOTION
Frames:    11
Frame Time: 0.03333334
-0.000049	 0.019639	 1.272602	-0.003283	 0.007912	 0.064098	-17.797170	-1.966361	-179.251200	 1.464755	-12.620360	-0.738021	-2.414983	 71.625690	-4.154242	-2.385833	 28.452760	 0.000004	 17.677050	-2.264188	 179.221900	-1.450479	-12.701550	 0.729275	 2.429828	 71.475200	 3.972789	 2.384658	 28.388730	 0.000004	-1.263506	 2.705087	 0.170458	-0.622349	 3.692716	-0.289855	 1.913778	-4.699828	 0.441010	-91.776170	 78.527430	 180.000000	 68.235200	 43.887950	-53.779750	-7.591656	 5.075609	-12.802890	-30.722690	-16.976020	-4.553642	-2.635965	 4.993658	 6.788941	-5.165319	 0.784187	 3.516649	-5.225038	 0.466231	 0.424329	-0.000002	-3.783157	-0.089647	 1.859336	 5.018313	-0.081499	 89.782190	 78.203870	 179.999900	-64.545370	 42.002780	 55.246890	 7.072659	 5.781618	 13.512530	 31.374180	-17.822510	 9.261643	 6.112037	 4.509576	-0.364401	 4.968462	 1.518543	-9.347576	 5.168945	 0.703820	 2.021906
-0.000044	 0.019538	 1.274214	-0.003278	 0.007915	 0.064096	-17.791500	-1.966462	-179.251600	 1.464751	-12.620600	-0.738038	-2.468964	 71.355100	-4.097876	-2.385833	 28.452760	 0.000004	 17.671410	-2.264224	 179.222300	-1.450474	-12.701680	 0.729280	 2.480708	 71.204510	 3.919460	 2.384658	 28.388730	 0.000004	-1.263508	 2.705086	 0.170459	-0.622354	 3.692700	-0.289864	 1.913787	-4.699821	 0.441011	-91.776170	 78.527490	 180.000000	 68.176000	 43.920860	-53.718700	-7.575224	 5.075164	-12.801890	-30.873780	-18.383520	-4.600344	-2.635965	 4.993658	 6.788941	-5.165319	 0.784187	 3.516649	-5.225038	 0.466231	 0.424329	-0.000002	-3.783157	-0.089647	 1.859338	 5.018313	-0.081499	 89.782100	 78.203900	 180.000000	-64.506030	 41.241100	 56.022790	 6.152315	 5.486697	 13.429350	 31.715980	-19.912360	 8.966437	 6.112037	 4.509576	-0.364401	 4.968462	 1.518543	-9.347576	 5.168945	 0.703820	 2.021906
-0.000037	 0.019431	 1.275963	-0.003285	 0.007917	 0.064098	-17.785360	-1.966305	-179.252000	 1.464758	-12.620330	-0.738021	-2.524062	 71.068550	-4.040143	-2.385833	 28.452760	 0.000004	 17.665250	-2.264133	 179.222700	-1.450478	-12.701550	 0.729275	 2.532573	 70.917940	 3.864798	 2.384658	 28.388730	 0.000004	-1.263504	 2.705087	 0.170459	-0.622348	 3.692701	-0.289855	 1.913790	-4.699824	 0.441008	-91.776190	 78.527450	-180.000000	 68.072020	 43.966610	-53.610710	-7.551513	 5.069471	-12.787070	-31.097130	-20.419390	-4.677089	-2.635965	 4.993658	 6.788941	-5.165319	 0.784187	 3.516649	-5.225038	 0.466231	 0.424329	-0.000002	-3.783157	-0.089647	 1.859337	 5.018313	-0.081499	 89.782140	 78.203900	 180.000000	-64.154720	 40.219880	 57.463210	 4.798142	 4.897915	 12.884170	 32.115920	-22.821640	 8.587293	 6.112037	 4.509576	-0.364401	 4.968462	 1.518543	-9.347576	 5.168945	 0.703820	 2.021906
-0.000028	 0.019331	 1.277708	-0.003285	 0.007917	 0.064098	-17.779060	-1.966236	-179.252500	 1.464762	-12.620240	-0.738016	-2.575800	 70.788660	-3.985531	-2.385833	 28.452760	 0.000004	 17.658990	-2.264107	 179.223200	-1.450480	-12.701550	 0.729275	 2.581352	 70.638060	 3.813075	 2.384658	 28.388730	 0.000004	-1.263504	 2.705087	 0.170459	-0.622348	 3.692694	-0.289857	 1.913791	-4.699817	 0.441010	-91.776120	 78.527470	 180.000000	 67.910680	 44.010180	-53.422120	-7.520705	 5.068028	-12.783360	-31.384340	-22.949450	-4.788666	-2.635965	 4.993658	 6.788941	-5.165319	 0.784187	 3.516649	-5.225038	 0.466231	 0.424329	-0.000002	-3.783157	-0.089647	 1.859336	 5.018314	-0.081499	 89.782120	 78.203870	 180.000000	-63.005250	 38.766610	 58.806200	 2.709449	 4.491969	 13.263070	 31.751730	-26.424640	 7.813480	 6.112037	 4.509576	-0.364401	 4.968462	 1.518543	-9.347576	 5.168945	 0.703820	 2.021906
-0.000019	 0.019240	 1.279528	-0.003285	 0.007917	 0.064094	-17.772340	-1.966333	-179.253000	 1.464754	-12.620490	-0.738030	-2.627271	 70.499970	-3.930882	-2.385833	 28.452760	 0.000004	 17.652310	-2.264078	 179.223600	-1.450480	-12.701560	 0.729273	 2.629810	 70.349180	 3.761370	 2.384658	 28.388730	 0.000004	-1.263505	 2.705087	 0.170461	-0.622350	 3.692695	-0.289864	 1.913787	-4.699820	 0.441013	-91.776080	 78.527450	 179.999900	 67.662310	 44.040290	-53.063920	-7.594324	 5.098605	-12.862280	-31.631380	-26.054180	-4.932011	-2.635965	 4.993658	 6.788941	-5.165319	 0.784187	 3.516649	-5.225038	 0.466231	 0.424329	-0.000002	-3.783157	-0.089647	 1.859336	 5.018314	-0.081499	 89.782100	 78.203900	 180.000000	-60.177180	 36.581030	 59.570760	-0.435048	 4.470678	 15.970920	 30.357720	-30.805200	 6.424977	 6.112037	 4.509576	-0.364401	 4.968462	 1.518543	-9.347576	 5.168945	 0.703820	 2.021906
-0.000009	 0.019167	 1.281322	-0.003284	 0.007915	 0.064096	-17.765580	-1.966299	-179.253500	 1.464756	-12.620480	-0.738030	-2.675535	 70.218670	-3.879322	-2.385833	 28.452760	 0.000004	 17.645610	-2.264043	 179.224100	-1.450478	-12.701550	 0.729274	 2.675305	 70.067810	 3.712519	 2.384658	 28.388730	 0.000004	-1.263505	 2.705087	 0.170459	-0.622349	 3.692705	-0.289866	 1.913785	-4.699827	 0.441014	-91.776150	 78.527470	 180.000000	 67.289600	 44.027460	-52.500070	-7.579597	 5.162391	-13.026920	-32.020780	-29.441180	-5.142133	-2.635965	 4.993658	 6.788941	-5.165319	 0.784187	 3.516649	-5.225038	 0.466231	 0.424329	-0.000002	-3.783157	-0.089647	 1.859336	 5.018314	-0.081499	 89.782110	 78.203850	 180.000000	-56.149380	 34.006610	 63.264240	-3.550647	 3.352398	 15.232790	 28.178420	-35.180920	 4.743206	 6.112037	 4.509576	-0.364401	 4.968462	 1.518543	-9.347576	 5.168945	 0.703820	 2.021906
 0.000003	 0.019094	 1.282878	-0.003280	 0.007917	 0.064094	-17.758670	-1.966214	-179.254000	 1.464755	-12.620340	-0.738024	-2.721897	 69.938280	-3.829507	-2.385833	 28.452760	 0.000004	 17.638680	-2.264020	 179.224600	-1.450475	-12.701560	 0.729275	 2.718941	 69.787450	 3.665300	 2.384658	 28.388730	 0.000004	-1.263506	 2.705086	 0.170460	-0.622349	 3.692689	-0.289906	 1.913792	-4.699809	 0.441035	-91.776180	 78.527490	 180.000000	 66.799840	 43.972370	-51.764410	-7.565224	 5.223838	-13.185560	-32.458520	-32.894570	-5.406838	-2.635965	 4.993658	 6.788941	-5.165319	 0.784187	 3.516649	-5.225038	 0.466231	 0.424329	-0.000002	-3.783157	-0.089647	 1.859336	 5.018314	-0.081499	 89.782140	 78.203900	 180.000000	-50.360660	 30.660010	 66.628410	-6.979053	 2.536119	 16.143030	 24.957470	-39.240250	 2.678567	 6.112037	 4.509576	-0.364401	 4.968462	 1.518543	-9.347576	 5.168945	 0.703820	 2.021906
 0.000015	 0.019011	 1.284054	-0.003285	 0.007917	 0.064098	-17.751790	-1.966188	-179.254500	 1.464753	-12.620350	-0.738021	-2.764759	 69.669470	-3.783106	-2.385833	 28.452760	 0.000004	 17.631860	-2.263972	 179.225100	-1.450478	-12.701530	 0.729274	 2.759286	 69.518600	 3.621359	 2.384658	 28.388730	 0.000004	-1.263505	 2.705087	 0.170459	-0.622349	 3.692710	-0.289846	 1.913782	-4.699829	 0.441002	-91.776120	 78.527450	 179.999900	 66.207170	 43.867300	-50.881390	-7.553398	 5.273590	-13.314210	-32.885300	-35.881940	-5.690786	-2.635965	 4.993658	 6.788941	-5.165319	 0.784187	 3.516649	-5.225038	 0.466231	 0.424329	-0.000002	-3.783157	-0.089647	 1.859337	 5.018313	-0.081499	 89.782130	 78.203890	 180.000000	-43.385030	 27.312860	 71.646720	-10.388300	 1.396138	 14.763050	 21.185000	-42.399940	 0.437886	 6.112037	 4.509576	-0.364401	 4.968462	 1.518543	-9.347576	 5.168945	 0.703820	 2.021906
 0.000024	 0.018836	 1.284940	-0.003285	 0.007917	 0.064098	-17.744470	-1.966118	-179.255100	 1.464761	-12.620250	-0.738016	-2.807259	 69.392590	-3.736728	-2.385833	 28.452760	 0.000004	 17.624620	-2.263899	 179.225500	-1.450486	-12.701440	 0.729265	 2.799336	 69.241650	 3.577401	 2.384658	 28.388730	 0.000004	-1.263504	 2.705087	 0.170459	-0.622348	 3.692692	-0.289856	 1.913785	-4.699814	 0.441008	-91.776150	 78.527450	 180.000000	 65.463560	 43.691440	-49.743910	-7.536923	 5.342565	-13.492650	-33.250060	-38.057120	-5.953745	-2.635965	 4.993658	 6.788941	-5.165319	 0.784187	 3.516649	-5.225038	 0.466231	 0.424329	-0.000002	-3.783157	-0.089647	 1.859337	 5.018313	-0.081499	 89.782150	 78.203890	 180.000000	-35.389980	 23.423820	 77.419900	-14.070620	 0.371694	 13.074750	 16.361060	-44.191640	-1.977204	 6.112037	 4.509576	-0.364401	 4.968462	 1.518543	-9.347576	 5.168945	 0.703820	 2.021906
 0.000023	 0.018691	 1.285411	-0.003284	 0.007914	 0.064092	-17.736050	-1.966177	-179.255600	 1.464756	-12.620470	-0.738031	-2.853197	 69.082370	-3.686247	-2.385833	 28.452760	 0.000004	 17.616240	-2.263917	 179.226100	-1.450482	-12.701560	 0.729274	 2.842503	 68.931300	 3.529597	 2.384658	 28.388730	 0.000004	-1.263505	 2.705086	 0.170462	-0.622349	 3.692693	-0.289857	 1.913785	-4.699811	 0.441009	-91.776180	 78.527430	 180.000000	 64.498800	 43.412650	-48.240900	-7.515935	 5.429321	-13.717230	-33.412880	-38.521970	-6.086238	-2.635965	 4.993658	 6.788941	-5.165319	 0.784187	 3.516649	-5.225038	 0.466231	 0.424329	-0.000002	-3.783157	-0.089647	 1.859337	 5.018313	-0.081499	 89.782120	 78.203870	 180.000000	-24.673050	 17.708280	 84.140030	-18.349810	-0.467862	 9.897429	 9.894062	-43.417950	-4.305215	 6.112037	 4.509576	-0.364401	 4.968462	 1.518543	-9.347576	 5.168945	 0.703820	 2.021906
 0.000054	 0.018629	 1.285179	-0.003284	 0.007915	 0.064096	-17.728460	-1.966130	-179.256200	 1.464762	-12.620430	-0.738031	-2.892007	 68.809820	-3.643260	-2.385833	 28.452760	 0.000004	 17.608660	-2.263880	 179.226600	-1.450481	-12.701560	 0.729273	 2.878950	 68.658770	 3.488873	 2.384658	 28.388730	 0.000004	-1.263505	 2.705087	 0.170459	-0.622351	 3.692702	-0.289864	 1.913787	-4.699824	 0.441011	-91.776150	 78.527450	 180.000000	 63.663210	 43.149510	-46.924010	-7.497566	 5.503141	-13.908710	-33.240400	-36.732900	-5.978240	-2.635965	 4.993658	 6.788941	-5.165319	 0.784187	 3.516649	-5.225038	 0.466231	 0.424329	-0.000002	-3.783157	-0.089647	 1.859337	 5.018313	-0.081499	 89.782110	 78.203900	 180.000000	-13.363330	 13.928760	 88.123500	-21.847760	-1.174065	 10.720320	 6.164912	-40.508970	-5.467454	 6.112037	 4.509576	-0.364401	 4.968462	 1.518543	-9.347576	 5.168945	 0.703820	 2.021906
